<?xml version="1.0"?>
<svg xmlns="http://www.w3.org/2000/svg" height="512px" viewBox="1 1 511.99931 511.99931" width="512px"><path d="m256 0c-141.386719 0-256 114.613281-256 256 0 141.382812 114.613281 256 256 256 141.382812 0 256-114.617188 256-256-.167969-141.316406-114.683594-255.832031-256-256zm0 480c-123.710938 0-224-100.289062-224-224s100.289062-224 224-224 224 100.289062 224 224c-.132812 123.65625-100.34375 223.867188-224 224zm0 0" fill="#FFFFFF"/><path d="m256 96c-52.996094.054688-95.949219 43.003906-96 96h32c0-35.34375 28.652344-64 64-64 35.34375-.035156 64.027344 28.589844 64.0625 63.9375.027344 28.300781-18.535156 53.257812-45.648438 61.375-20.402343 5.9375-34.429687 24.640625-34.414062 45.886719v52.800781h32v-52.800781c.0625-7.09375 4.789062-13.300781 11.613281-15.246094 50.785157-15.234375 79.605469-68.75 64.371094-119.535156-12.183594-40.621094-49.578125-68.433594-91.984375-68.417969zm0 0" fill="#FFFFFF"/><path d="m240 384h32v32h-32zm0 0" fill="#FFFFFF"/></svg>
