<?xml version="1.0" encoding="utf-8"?>
<!-- Svg Vector Icons : http://www.onlinewebfonts.com/icon -->
<!DOCTYPE svg PUBLIC "-//W3C//DTD SVG 1.1//EN" "http://www.w3.org/Graphics/SVG/1.1/DTD/svg11.dtd">
<svg version="1.1" xmlns="http://www.w3.org/2000/svg" xmlns:xlink="http://www.w3.org/1999/xlink" x="0px" y="0px" viewBox="0 0 1000 1000" enable-background="new 0 0 1000 1000" xml:space="preserve">
<metadata> Svg Vector Icons : http://www.onlinewebfonts.com/icon </metadata>
<g><path d="M294.6,498.3c0,112.8,91.4,204.2,204.2,204.2c112.8,0,204.2-91.4,204.2-204.2s-91.4-204.2-204.2-204.2C386,294.1,294.6,385.5,294.6,498.3z"/><path d="M299.2,296.8c54-54,125.8-84,202.1-84c76.3,0,148.1,30.2,202.1,84.2c34.3,34.3,58.7,75.4,72.1,121.4H990V129.9C990,62.3,937.7,10,870.1,10h-735C67.4,10,10,62.3,10,129.9v288.4h217.1C240.4,372.4,264.9,331.1,299.2,296.8z M908.3,222.3c0,18-14.6,32.7-32.7,32.7h-98c-18,0-32.7-14.6-32.7-32.7v-98c0-18,14.6-32.7,32.7-32.7h98c18,0,32.7,14.6,32.7,32.7V222.3z"/><path d="M703.4,701c-54,54-125.8,83.4-202.1,83.4c-76.3,0-148.1-29.3-202.1-83.2C245.3,647.3,215.6,574,215.4,500H10v364.9C10,932.6,67.4,990,135.1,990h735c67.7,0,119.9-57.4,119.9-125.1V500H787.1C787,574,757.3,647.2,703.4,701z"/></g>
</svg>