<?xml version="1.0" encoding="utf-8"?>
<!-- Generator: Adobe Illustrator 21.0.0, SVG Export Plug-In . SVG Version: 6.00 Build 0)  -->
<svg version="1.1" id="Слой_1" xmlns="http://www.w3.org/2000/svg" xmlns:xlink="http://www.w3.org/1999/xlink" x="0px" y="0px"
	 viewBox="0 0 229 273" style="enable-background:new 0 0 229 273;" xml:space="preserve">
<style type="text/css">
	.st0{display:none;opacity:4.000000e-02;}
	.st1{display:inline;fill:#FFFFFF;}
	.st2{opacity:4.000000e-02;}
	.st3{fill:#FFFFFF;}
</style>
<g class="st0">
	<path class="st1" d="M-170.5,272.3c-41.1,0-72.2-10.1-93.2-30.4c-21.1-20.3-31.6-47.3-31.6-81V4.1h69.1v154.4
		c0,16.1,4.8,29,14.4,38.9c9.6,9.9,23.4,14.8,41.3,14.8c17.6,0,31.3-4.9,40.9-14.8c9.6-9.9,14.4-22.8,14.4-38.9V4.1h68.7v156.4
		c0,34-10.5,61.1-31.4,81.4C-98.8,262.2-129.7,272.3-170.5,272.3z"/>
</g>
<g class="st2">
	<path class="st3" d="M117.6,272.3c-48.7,0-87.7-14-116.9-41.9l35.9-51c23.2,23.2,51.2,34.8,84.1,34.8c11.6,0,20.7-2,27.5-6.1
		c6.7-4.1,10.1-9.3,10.1-15.6c0-5.5-3.7-10.1-11.1-13.6c-7.4-3.6-16.6-6.2-27.7-7.9c-11.1-1.7-23-4.5-35.9-8.3
		c-12.9-3.8-24.9-8.3-35.9-13.4c-11.1-5.1-20.3-13.4-27.6-24.7C12.7,113.3,9,99.7,9,83.9C9,60.8,18.4,41,37.3,24.7
		C56.1,8.4,81.7,0.2,114.1,0.2c42.9,0,78.6,12.2,107,36.7L184,85.5c-22.1-18.2-47.8-27.3-77-27.3c-19,0-28.4,6.3-28.4,19
		c0,5,3.7,9.3,11.1,12.8c7.4,3.6,16.6,6.3,27.6,8.1c11.1,1.8,23,4.7,35.7,8.5c12.8,3.8,24.7,8.4,35.7,13.6
		c11.1,5.3,20.3,13.4,27.7,24.5c7.4,11.1,11.1,24.2,11.1,39.5c0,26.9-9.6,48.3-28.8,64.2C179.4,264.4,152.4,272.3,117.6,272.3z"/>
</g>
</svg>
