<?xml version="1.0" encoding="utf-8"?>
<!-- Generator: Adobe Illustrator 21.0.0, SVG Export Plug-In . SVG Version: 6.00 Build 0)  -->
<svg version="1.1" id="Слой_1" xmlns="http://www.w3.org/2000/svg" xmlns:xlink="http://www.w3.org/1999/xlink" x="0px" y="0px"
	 viewBox="0 0 251 273" style="enable-background:new 0 0 251 273;" xml:space="preserve">
<style type="text/css">
	.st0{opacity:4.000000e-02;}
	.st1{fill:#FFFFFF;}
</style>
<g class="st0">
	<path class="st1" d="M126.5,272.3c-41.1,0-72.2-10.1-93.2-30.4c-21.1-20.3-31.6-47.3-31.6-81V4.1h69.1v154.4
		c0,16.1,4.8,29,14.4,38.9c9.6,9.9,23.4,14.8,41.3,14.8c17.6,0,31.3-4.9,40.9-14.8c9.6-9.9,14.4-22.8,14.4-38.9V4.1h68.7v156.4
		c0,34-10.5,61.1-31.4,81.4C198.2,262.2,167.3,272.3,126.5,272.3z"/>
</g>
<text transform="matrix(1 0 0 1 292.9824 267.6016)" style="display:none; font-family:'ProximaNova-Extrabld'; font-size:395px;">S</text>
</svg>
