<?xml version="1.0" encoding="utf-8"?>
<!-- Generator: Adobe Illustrator 21.0.0, SVG Export Plug-In . SVG Version: 6.00 Build 0)  -->
<svg version="1.1" id="Слой_1" xmlns="http://www.w3.org/2000/svg" xmlns:xlink="http://www.w3.org/1999/xlink" x="0px" y="0px"
	 viewBox="0 0 633.4 412.4" style="enable-background:new 0 0 633.4 412.4;" xml:space="preserve">
<style type="text/css">
	.st0{fill:#FFFFFF;}
</style>
	<filter id="blur">
			<feGaussianBlur in="SourceGraphic" stdDeviation="5"/>
		</filter>
<g>
	<g>
		<path filter="url(#blur)" class="st0" d="M4,208.6c0-11.2,4-20.3,12.1-27.5c8.1-7.3,19.2-11,33-11c17,0,32.6,5.9,41.4,15.6l-6.6,9
			c-8.8-8.8-20.3-13.2-34.4-13.2c-20.3,0-32.8,10.6-32.8,27.1c0,42.9,79.7,25.5,79.7,79.1c0,12.1-4.6,21.8-14.1,29.3
			c-9.5,7.5-21.1,11.2-35,11.2c-9.5,0-18.9-2-28.2-5.9c-9-4.2-15.4-9.5-19.2-16.3l7.3-8.4c8.8,11.7,25.1,19.2,39.9,19.2
			c10.1,0,18.7-2.6,25.8-7.7c7.3-5.1,10.8-12.1,10.8-21.1C83.7,244.5,4,259.9,4,208.6z"/>
		<path class="st0" d="M144.9,326.2h-12.1V172.1c2.9,0,9,0,18.7-0.2c9.7-0.2,16.1-0.2,18.9-0.2c42.7,0,54.8,23.6,54.8,46.5
			c0,13.2-4.6,24.4-13.9,33.5c-9.3,9-22.9,13.7-41,13.7c-9.3,0-17.8-0.2-25.5-0.9V326.2z M144.9,183.5v69.2
			c9.5,0.7,17.8,1.1,25.1,1.1c27.3,0,42.5-14.1,42.5-35.9c0-21.1-13-34.8-41-34.8C163.4,183.1,154.6,183.3,144.9,183.5z"/>
		<path class="st0" d="M227.7,326.2l67.2-155.5h9.9L372,326.2h-13l-22.5-52.4h-74l-22.5,52.4H227.7z M299.5,187.5l-32.2,74.9h64.1
			L299.5,187.5z"/>
		<path class="st0" d="M508.3,311.3c-10.6,10.6-29.3,17-47.8,17c-23.1,0-41.6-7.3-55.9-21.6c-14.3-14.3-21.4-33.5-21.4-57.5
			c0-22.7,6.8-41.4,20.7-56.4c13.9-15.2,32.2-22.7,54.8-22.7c19.6,0,35,4.8,46.7,14.5l-5.7,9c-10.6-8.1-24.2-12.1-40.7-12.1
			c-18.7,0-33.9,6.4-45.6,19.2c-11.7,12.6-17.4,28.9-17.4,48.5c0,20,5.9,36.3,18.1,48.9s28,18.7,47.4,18.7
			c16.1,0,30.2-4.8,42.1-14.5L508.3,311.3z"/>
		<path class="st0" d="M540.2,326.2V172.1h85.2v11.5h-73.1v58.8h66.5v11.5h-66.5v61h75.3v11.5H540.2z"/>
	</g>
	<g>
		<path class="st0" d="M25.3,384.3c0,2.8-1.1,5.2-3.2,7.2c-2.1,2-4.7,3-7.7,3c-4.8,0-8.5-2.3-11-6.8l4.1-2.9c1.6,3.4,3.9,5,6.9,5
			c1.6,0,2.9-0.5,4-1.5c1.1-1,1.6-2.3,1.6-3.8c0-1.4-0.5-2.5-1.4-3.2c-0.9-0.7-2.8-1.7-5.8-2.9c-5-2.1-7.5-5-7.5-8.7
			c0-2.4,0.9-4.5,2.8-6.2c1.8-1.7,4-2.5,6.4-2.5c3.6,0,6.4,1.7,8.3,5.2l-3.7,2.6c-1.3-2-2.8-3.1-4.7-3.1c-1.2,0-2.2,0.4-3,1.2
			c-0.9,0.8-1.3,1.6-1.3,2.6c0,1,0.4,1.9,1.2,2.6c0.8,0.8,2.5,1.6,4.9,2.6c3.1,1.2,5.4,2.5,6.8,4C24.6,380.1,25.3,382,25.3,384.3z"
			/>
		<path class="st0" d="M63.2,377.7c0,4.7-1.7,8.7-5,11.9c-3.3,3.2-7.3,4.8-12,4.8c-4.8,0-8.8-1.6-12-4.8c-3.3-3.2-4.9-7.2-4.9-12
			c0-4.6,1.6-8.5,4.9-11.8c3.3-3.3,7.3-4.9,12-4.9c4.7,0,8.7,1.6,12,4.9C61.6,369.2,63.2,373.1,63.2,377.7z M57.8,377.8
			c0-3.3-1.1-6-3.4-8.3c-2.3-2.3-5-3.4-8.2-3.4c-3.2,0-6,1.1-8.2,3.4c-2.2,2.3-3.3,5.1-3.3,8.3c0,3.3,1.1,6.1,3.3,8.4s5,3.4,8.2,3.4
			c3.2,0,6-1.1,8.2-3.4C56.7,383.9,57.8,381.1,57.8,377.8z"/>
		<path class="st0" d="M81.9,343.6c-1.2-0.8-2.4-1.1-3.7-1.1c-1.9,0-2.9,1.8-2.9,5.5v14h6.1v4.9h-6.1v26.6H70v-26.6h-4.2V362H70
			v-14.7c0-6.6,2.7-9.9,8.1-9.9c1.2,0,2.5,0.3,3.8,0.9V343.6z"/>
		<path class="st0" d="M96,366.9H91v26.6h-5.3v-26.6h-3.6V362h3.6v-13.5H91V362H96V366.9z"/>
		<path class="st0" d="M146.1,362l-14.4,32.8l-10.9-22.9l-10.9,22.9L95.6,362h5.7l8.9,21.3l10.7-22.6l10.7,22.6l9-21.3H146.1z"/>
		<path class="st0" d="M179.7,393.5h-5.3v-5.3c-2.9,4.2-6.8,6.3-11.5,6.3c-4.4,0-8-1.6-10.9-4.8c-2.9-3.2-4.3-7.2-4.3-12
			c0-4.9,1.4-8.9,4.3-12c2.9-3.1,6.5-4.7,11-4.7c2.4,0,4.6,0.6,6.7,1.8c2,1.1,3.6,2.7,4.7,4.6V362h5.3V393.5z M174.7,377.7
			c0-3.6-1-6.5-3.1-8.7c-2.1-2.2-4.7-3.3-7.9-3.3c-3,0-5.5,1.1-7.6,3.4c-2,2.3-3,5.1-3,8.5c0,3.5,1,6.4,3.1,8.8s4.6,3.5,7.8,3.5
			c3.1,0,5.7-1.1,7.8-3.4C173.7,384.2,174.7,381.3,174.7,377.7z"/>
		<path class="st0" d="M206,362l-1.5,5.2c-0.9-0.8-2-1.2-3.5-1.2c-2.3,0-4.1,1.2-5.5,3.6c-1.2,2.2-1.8,4.9-1.8,8.1v15.9h-5.3V362
			h5.1v5c2.1-3.9,4.7-5.9,7.9-5.9C203,361.1,204.5,361.4,206,362z"/>
		<path class="st0" d="M239.2,379.1h-26.5c0.3,3,1.4,5.5,3.5,7.5s4.5,3,7.3,3c4.6,0,7.9-1.7,10.1-5l4.1,2.7
			c-3.5,4.8-8.2,7.3-14.1,7.3c-4.4,0-8.1-1.6-11.2-4.9c-3-3.3-4.6-7.2-4.6-11.9c0-4.6,1.5-8.5,4.6-11.8c3.1-3.3,6.8-4.9,11.1-4.9
			c4.4,0,8.1,1.6,11.2,4.9c3.1,3.3,4.6,7.2,4.6,11.8V379.1z M234.3,374.7c-0.7-2.5-2-4.6-4.1-6.3c-2.1-1.8-4.4-2.6-6.8-2.6
			c-2.4,0-4.7,0.9-6.7,2.6c-2,1.7-3.4,3.8-4,6.3H234.3z"/>
		<path class="st0" d="M295.7,393.5h-5v-5.5c-2.9,4.3-6.9,6.4-11.9,6.4c-4.3,0-7.9-1.6-10.8-4.7c-2.9-3.2-4.3-7.1-4.3-11.8
			c0-5,1.4-9,4.2-12.2c2.8-3.2,6.5-4.8,10.9-4.8c4.8,0,8.7,2.2,11.8,6.5c0-0.6,0-1.6-0.1-3c-0.1-1.5-0.1-2.6-0.1-3.4v-22.7h5.3
			V393.5z M290.6,377.3c0-3.4-1-6.1-3.1-8.3c-2.1-2.2-4.7-3.3-7.8-3.3s-5.6,1.1-7.7,3.4c-2,2.3-3,5.1-3,8.5c0,3.6,1,6.6,3,8.9
			c2,2.3,4.6,3.4,7.8,3.4c3.2,0,5.8-1.2,7.8-3.5C289.6,384.1,290.6,381.1,290.6,377.3z"/>
		<path class="st0" d="M333.5,379.1h-26.5c0.3,3,1.4,5.5,3.5,7.5s4.5,3,7.3,3c4.6,0,7.9-1.7,10.1-5l4.1,2.7
			c-3.5,4.8-8.2,7.3-14.1,7.3c-4.4,0-8.1-1.6-11.2-4.9c-3-3.3-4.6-7.2-4.6-11.9c0-4.6,1.5-8.5,4.6-11.8c3.1-3.3,6.8-4.9,11.1-4.9
			c4.4,0,8.1,1.6,11.2,4.9c3.1,3.3,4.6,7.2,4.6,11.8V379.1z M328.6,374.7c-0.7-2.5-2-4.6-4.1-6.3c-2.1-1.8-4.4-2.6-6.8-2.6
			c-2.4,0-4.7,0.9-6.7,2.6c-2,1.7-3.4,3.8-4,6.3H328.6z"/>
		<path class="st0" d="M365.9,362l-15.5,32.6L334.9,362h5.7l9.8,22.1l9.9-22.1H365.9z"/>
		<path class="st0" d="M398.9,379.1h-26.5c0.3,3,1.4,5.5,3.5,7.5s4.5,3,7.3,3c4.6,0,7.9-1.7,10.1-5l4.1,2.7
			c-3.5,4.8-8.2,7.3-14.1,7.3c-4.4,0-8.1-1.6-11.2-4.9c-3-3.3-4.6-7.2-4.6-11.9c0-4.6,1.5-8.5,4.6-11.8c3.1-3.3,6.8-4.9,11.1-4.9
			c4.4,0,8.1,1.6,11.2,4.9c3.1,3.3,4.6,7.2,4.6,11.8V379.1z M394,374.7c-0.7-2.5-2-4.6-4.1-6.3c-2.1-1.8-4.4-2.6-6.8-2.6
			c-2.4,0-4.7,0.9-6.7,2.6c-2,1.7-3.4,3.8-4,6.3H394z"/>
		<path class="st0" d="M410.5,393.5h-5.3v-55.2h5.3V393.5z"/>
		<path class="st0" d="M450.8,377.7c0,4.7-1.7,8.7-5,11.9c-3.3,3.2-7.3,4.8-12,4.8c-4.8,0-8.8-1.6-12-4.8c-3.3-3.2-4.9-7.2-4.9-12
			c0-4.6,1.6-8.5,4.9-11.8c3.3-3.3,7.3-4.9,12-4.9c4.7,0,8.7,1.6,12,4.9C449.1,369.2,450.8,373.1,450.8,377.7z M445.4,377.8
			c0-3.3-1.1-6-3.4-8.3c-2.3-2.3-5-3.4-8.2-3.4c-3.2,0-6,1.1-8.2,3.4c-2.2,2.3-3.3,5.1-3.3,8.3c0,3.3,1.1,6.1,3.3,8.4s5,3.4,8.2,3.4
			c3.2,0,6-1.1,8.2-3.4C444.3,383.9,445.4,381.1,445.4,377.8z"/>
		<path class="st0" d="M489,377.7c0,4.9-1.4,8.9-4.3,12.1c-2.9,3.2-6.5,4.7-10.9,4.7c-5,0-9-2.1-11.9-6.3c0,0.5,0.1,1.3,0.2,2.6
			c0.1,1.3,0.2,2.2,0.2,2.8v18.8H457V362h4.9v5.5c3.1-4.3,7-6.4,11.8-6.4c4.4,0,8,1.6,11,4.8C487.5,369,489,373,489,377.7z
			 M483.6,377.8c0-3.5-1-6.4-3.1-8.6c-2-2.3-4.6-3.4-7.8-3.4c-3,0-5.6,1.2-7.7,3.5c-2.1,2.3-3.2,5.2-3.2,8.6c0,3.5,1,6.4,3,8.7
			c2,2.3,4.7,3.4,7.9,3.4c3.1,0,5.7-1.1,7.7-3.4C482.6,384.2,483.6,381.3,483.6,377.8z"/>
		<path class="st0" d="M537.5,393.5h-5.3v-19.1c0-5.8-2-8.7-5.9-8.7c-4.8,0-7.3,3.5-7.3,10.5v17.3h-5.2v-19.1c0-5.8-1.9-8.7-5.7-8.7
			c-2.3,0-4.1,1-5.5,3c-1.3,2-2,4.8-2,8.5v16.3h-5.3V362h5v4.8c2.4-3.8,5.3-5.7,8.8-5.7c2,0,3.8,0.6,5.4,1.7c1.5,1,2.5,2.3,3.1,3.9
			c0.8-1.5,2-2.8,3.5-3.9c1.8-1.2,3.7-1.8,5.8-1.8c6.9,0,10.4,4.3,10.4,12.9V393.5z"/>
		<path class="st0" d="M575.3,379.1h-26.5c0.3,3,1.4,5.5,3.5,7.5s4.5,3,7.3,3c4.6,0,7.9-1.7,10.1-5l4.1,2.7
			c-3.5,4.8-8.2,7.3-14.1,7.3c-4.4,0-8.1-1.6-11.2-4.9c-3-3.3-4.6-7.2-4.6-11.9c0-4.6,1.5-8.5,4.6-11.8c3.1-3.3,6.8-4.9,11.1-4.9
			c4.4,0,8.1,1.6,11.2,4.9c3.1,3.3,4.6,7.2,4.6,11.8V379.1z M570.4,374.7c-0.7-2.5-2-4.6-4.1-6.3c-2.1-1.8-4.4-2.6-6.8-2.6
			c-2.4,0-4.7,0.9-6.7,2.6c-2,1.7-3.4,3.8-4,6.3H570.4z"/>
		<path class="st0" d="M607.6,393.5h-5.3v-19c0-3.1-0.5-5.3-1.6-6.7s-2.9-2.1-5.4-2.1c-2.6,0-4.7,1.1-6.2,3.4
			c-1.5,2.1-2.2,4.9-2.2,8.4v16h-5.3V362h5v4.5c2.5-3.6,5.8-5.4,9.9-5.4c7.4,0,11.1,4.3,11.1,12.9V393.5z"/>
		<path class="st0" d="M625.8,366.9h-4.9v26.6h-5.3v-26.6h-3.6V362h3.6v-13.5h5.3V362h4.9V366.9z"/>
	</g>
</g>
</svg>
